<svg width="31" height="20" viewBox="0 0 31 20" fill="none" xmlns="http://www.w3.org/2000/svg">
<path d="M3.536 16.792H9.176V19H0.8V2.32H3.536V16.792ZM12.8561 4.024C12.3601 4.024 11.9441 3.856 11.6081 3.52C11.2721 3.184 11.1041 2.768 11.1041 2.272C11.1041 1.776 11.2721 1.36 11.6081 1.024C11.9441 0.687999 12.3601 0.519999 12.8561 0.519999C13.3361 0.519999 13.7441 0.687999 14.0801 1.024C14.4161 1.36 14.5841 1.776 14.5841 2.272C14.5841 2.768 14.4161 3.184 14.0801 3.52C13.7441 3.856 13.3361 4.024 12.8561 4.024ZM14.2001 5.776V19H11.4641V5.776H14.2001ZM16.8802 12.328C16.8802 11 17.1522 9.824 17.6962 8.8C18.2562 7.776 19.0082 6.984 19.9522 6.424C20.9122 5.848 21.9682 5.56 23.1202 5.56C24.1602 5.56 25.0642 5.768 25.8322 6.184C26.6162 6.584 27.2402 7.088 27.7042 7.696V5.776H30.4642V19H27.7042V17.032C27.2402 17.656 26.6082 18.176 25.8082 18.592C25.0082 19.008 24.0962 19.216 23.0722 19.216C21.9362 19.216 20.8962 18.928 19.9522 18.352C19.0082 17.76 18.2562 16.944 17.6962 15.904C17.1522 14.848 16.8802 13.656 16.8802 12.328ZM27.7042 12.376C27.7042 11.464 27.5122 10.672 27.1282 10C26.7602 9.328 26.2722 8.816 25.6642 8.464C25.0562 8.112 24.4002 7.936 23.6962 7.936C22.9922 7.936 22.3362 8.112 21.7282 8.464C21.1202 8.8 20.6242 9.304 20.2402 9.976C19.8722 10.632 19.6882 11.416 19.6882 12.328C19.6882 13.24 19.8722 14.04 20.2402 14.728C20.6242 15.416 21.1202 15.944 21.7282 16.312C22.3522 16.664 23.0082 16.84 23.6962 16.84C24.4002 16.84 25.0562 16.664 25.6642 16.312C26.2722 15.96 26.7602 15.448 27.1282 14.776C27.5122 14.088 27.7042 13.288 27.7042 12.376Z" fill="#2E2E2E"/>
</svg>
